<svg xmlns="http://www.w3.org/2000/svg" viewBox="0 0 8 8"><rect width="8" height="8"/><rect fill="#fff" x="3" width="1" height="1"/><rect fill="#fff" x="7" y="4" width="1" height="1"/><rect fill="#fff" x="5" y="2" width="1" height="1"/><rect fill="#fff" x="7" width="1" height="1"/><rect fill="#fff" x="1" y="6" width="1" height="1"/><rect fill="#fff" x="3" y="4" width="1" height="1"/><rect fill="#fff" x="1" y="2" width="1" height="1"/><rect fill="#fff" x="5" y="6" width="1" height="1"/><rect fill="#fff" x="5" width="1" height="1"/><rect fill="#fff" x="1" y="4" width="1" height="1"/><rect fill="#fff" x="3" y="2" width="1" height="1"/><rect fill="#fff" x="1" width="1" height="1"/><rect fill="#fff" x="5" y="4" width="1" height="1"/><rect fill="#fff" x="7" y="2" width="1" height="1"/><rect fill="#fff" x="3" y="6" width="1" height="1"/><rect fill="#fff" x="7" y="6" width="1" height="1"/><rect fill="#fff" x="6" y="1" width="1" height="1"/><rect fill="#fff" x="2" y="5" width="1" height="1"/><rect fill="#fff" x="2" y="1" width="1" height="1"/><rect fill="#fff" x="6" y="5" width="1" height="1"/><rect fill="#fff" x="4" y="3" width="1" height="1"/><rect fill="#fff" y="7" width="1" height="1"/></svg>
