<?xml version="1.0" encoding="UTF-8"?>
<svg width="32" height="32" viewBox="0 0 32 32">
  <!-- Generator: Adobe Illustrator 30.3.0, SVG Export Plug-In . SVG Version: 2.1.3 Build 182)  -->
  <defs>
    <style>
      .st0 {
        fill: url(#linear-gradient);
      }

      .st1 {
        fill: none;
        stroke: #cdd0d5;
        stroke-linecap: round;
        stroke-linejoin: round;
      }

      .st2 {
        fill: #fff;
      }

      .st3 {
        fill: #b2c2d3;
      }

      .st4, .st5 {
        fill: #f1f3f4;
      }

      .st5 {
        fill-rule: evenodd;
      }
    </style>
    <linearGradient id="linear-gradient" x1="-270.94" y1="389.31" x2="-269.95" y2="388.33" gradientTransform="translate(4340 6229) scale(16 -16)" gradientUnits="userSpaceOnUse">
      <stop offset="0" stop-color="#f1f3f4"/>
      <stop offset="1" stop-color="#dadce0"/>
    </linearGradient>
  </defs>
  <g>
    <g>
      <path class="st1" d="M26.75,31c1.66,0,3-1.34,3-3s-1.34-3-3-3h-14.75M1,20h14"/>
      <path class="st1" d="M11.75,31c1.66,0,3-1.34,3-3s-1.34-3-3-3H1M22.75,14c1.66,0,3,1.34,3,3s-1.34,3-3,3H1"/>
    </g>
    <ellipse class="st4" cx="13.12" cy="8" rx="7.87" ry="8"/>
    <circle class="st0" cx="13" cy="8" r="8"/>
    <path class="st5" d="M13,16c0-3.68-2.91-6.67-6.5-6.67S0,12.32,0,16c0-.02,13-.01,13,0Z"/>
  </g>
  <g>
    <path class="st3" d="M5.27,29.16s-.06,0-.09-.02c-.07-.03-.12-.09-.15-.16,0-.03-.21-.71.11-1.21.11-.17.18-.36.26-.57.04-.1.08-.21.12-.31.08-.19.16-.37.22-.56.04-.12.09-.29.11-.44.07-.66-.03-.81-.4-1.38-.29-.43-.56-.78-.83-1.12-.38-.48-.78-.97-1.08-1.53l-.23-.42c-.05-.08-.04-.19.02-.27.05-.06.12-.1.2-.1.02,0,.03,0,.05,0l.47.1c1.77.37,3.32,1.31,4.6,2.78.68-.29,1.34-.65,1.92-.99-.02-.05-.04-.09-.05-.14l-.09-.3c-.02-.08,0-.16.04-.23.05-.06.12-.09.2-.09,0,0,.33.02.33.02.24.02.46.05.66.1l.55-.33c.87-.51,1.88-1.08,2.96-1.48.03-.78-.18-1.58-.57-2.17l-.37-.56c-.06-.09-.06-.21.01-.29.05-.06.12-.1.2-.1.03,0,.06,0,.08.01l.63.23c1.32.48,2.46,1.17,3.39,2.05,1.49-.22,3.02-.33,4.54-.33.88,0,1.79.04,2.67.11.25.02.7.06.89.43.1.2.08.43-.04.65-.21.36-.5.63-.71.8-.04.03-.08.07-.13.1,0,.02.01.03.02.05.02.09,0,.18-.08.24l-.3.27c-.62.56-1.33,1.05-2.12,1.46-.68.35-1.43.65-2.23.89-.04,1.05-.33,2.51-1.08,3.46l-.25.33c-.05.06-.12.1-.2.1-.01,0-.03,0-.04,0-.09-.02-.17-.08-.19-.17l-.13-.4c-.11-.34-.19-.69-.27-1.04-.11-.5-.22-1-.43-1.43,0,0,0-.01,0-.02-1.13.37-2.27.62-3.4.75-.19.27-.4.49-.65.69-.14.11-.3.22-.46.31l-1.21.75s-.09.04-.13.04c-.06,0-.12-.02-.17-.07-.08-.08-.1-.2-.05-.3l.4-.73s.06-.19-.23-.58c-.27,0-.54-.02-.81-.03-.18.11-.36.19-.55.23l-1.31-.03c-.11,0-.21-.08-.23-.19-.02-.07,0-.15.04-.21h-.05c-.28-.04-.55-.07-.83-.09-.72,1.39-1.79,2.48-3.17,3.26l-.25.14s-.08.03-.12.03Z"/>
    <path class="st2" d="M14.44,17.65l.63.23c1.27.46,2.42,1.13,3.39,2.08,1.54-.23,3.08-.35,4.63-.35.88,0,1.77.04,2.65.11.24.02.57.06.69.29.07.14.04.28-.04.41-.17.28-.41.53-.66.73-.1.08-.2.16-.32.2-.1.04-.21.04-.32.06-.02,0-.03,0-.05,0,.03,0,.06.01.1.02l.39.11-.3.27c-.62.56-1.32,1.04-2.07,1.42-.75.39-1.55.69-2.36.93,0,1.14-.33,2.6-1.03,3.5l-.26.33-.13-.4c-.11-.33-.18-.68-.26-1.02-.11-.5-.22-1.02-.45-1.49-.03-.07-.07-.14-.11-.21-1.19.4-2.41.68-3.66.82-.18.29-.39.52-.66.73-.14.11-.29.2-.43.3-.17.1-.34.2-.5.31l-.71.44.4-.73c.16-.3-.13-.71-.32-.94-.33,0-.67-.02-1-.04-.16.11-.34.2-.54.24h-.03s-1.23-.03-1.23-.03l.53-.32c-.25-.03-.5-.06-.75-.08-.33-.04-.67-.07-1-.1-.7,1.41-1.77,2.53-3.15,3.3l-.25.14s-.18-.6.08-1c.18-.28.27-.61.4-.91.08-.19.16-.38.23-.58.05-.16.1-.33.12-.49.09-.78-.07-.99-.49-1.62-.58-.88-1.35-1.63-1.86-2.57l-.23-.42.47.1c1.86.39,3.37,1.39,4.58,2.83.81-.32,1.58-.75,2.33-1.19-.01-.02-.03-.05-.04-.07-.04-.08-.08-.15-.11-.23l-.09-.3.32.02c.24.02.48.05.71.12.21-.13.43-.25.64-.38.98-.58,2-1.14,3.08-1.51.07-.85-.13-1.78-.6-2.49l-.37-.56M14.44,17.15c-.15,0-.3.07-.39.19-.13.17-.14.41-.02.59l.37.56c.34.5.53,1.18.53,1.86-1.04.4-2.01.95-2.84,1.44-.16.09-.31.18-.47.28-.19-.04-.39-.07-.6-.08l-.32-.02s-.02,0-.03,0c-.15,0-.3.07-.39.19-.1.13-.13.3-.09.45l.08.26c-.48.27-1,.56-1.55.8-1.3-1.44-2.85-2.35-4.62-2.72l-.47-.1s-.07-.01-.1-.01c-.16,0-.31.07-.4.2-.12.16-.13.37-.04.54l.23.42c.32.58.72,1.08,1.11,1.56.28.35.54.68.78,1.04l.04.07c.36.55.43.65.36,1.22-.01.13-.06.27-.1.39-.06.18-.14.36-.22.54-.04.1-.09.21-.13.31-.08.19-.15.38-.24.53-.37.59-.17,1.33-.14,1.42.04.15.15.26.29.32.06.02.12.04.19.04.08,0,.17-.02.24-.06l.25-.14c1.37-.77,2.45-1.85,3.19-3.21.15.01.29.03.44.04,0,.02,0,.04.01.06.06.21.25.37.47.37l1.23.04s.01,0,.02,0c.04,0,.07,0,.11-.01.21-.05.41-.12.59-.23.21.01.41.02.62.03.12.18.12.26.12.26l-.38.69c-.11.2-.07.45.1.6.1.09.22.14.34.14.09,0,.18-.02.26-.08l.71-.44.27-.17.23-.14c.16-.1.33-.21.48-.33.25-.19.45-.41.64-.66,1.03-.13,2.08-.36,3.12-.68.15.37.24.78.33,1.18.08.37.16.73.28,1.09l.13.4c.06.18.21.31.39.34.03,0,.06,0,.09,0,.15,0,.3-.07.39-.19l.26-.33c.74-.94,1.06-2.33,1.12-3.43.75-.24,1.46-.52,2.1-.86.81-.42,1.54-.92,2.17-1.5l.3-.27c.11-.1.17-.23.17-.38,0,0,0,0,0,0,.23-.19.55-.48.78-.87.17-.29.19-.61.05-.89-.25-.5-.84-.55-1.09-.57-.9-.07-1.8-.11-2.69-.11-1.5,0-3,.11-4.46.32-.93-.86-2.07-1.54-3.39-2.02l-.63-.23c-.06-.02-.11-.03-.17-.03h0Z"/>
  </g>
</svg>